<svg width="11" height="11" viewBox="0 0 11 11" fill="none" xmlns="http://www.w3.org/2000/svg">
<g clip-path="url(#clip0_6_128)">
<path d="M2.9334 4.4C2.34992 4.4 1.79034 4.16821 1.37776 3.75563C0.965183 3.34305 0.733398 2.78348 0.733398 2.2C0.733398 1.61652 0.965183 1.05695 1.37776 0.644365C1.79034 0.231785 2.34992 0 2.9334 0L8.06673 0C8.65021 0 9.20979 0.231785 9.62237 0.644365C10.0349 1.05695 10.2667 1.61652 10.2667 2.2C10.2667 2.78348 10.0349 3.34305 9.62237 3.75563C9.20979 4.16821 8.65021 4.4 8.06673 4.4H6.60007V2.56667C6.60007 2.08044 6.40691 1.61412 6.06309 1.2703C5.71928 0.926488 5.25296 0.733333 4.76673 0.733333C4.2805 0.733333 3.81419 0.926488 3.47037 1.2703C3.12655 1.61412 2.9334 2.08044 2.9334 2.56667V4.4Z" fill="white"/>
<path d="M4.76662 1.46667C4.47488 1.46667 4.19509 1.58256 3.9888 1.78885C3.78251 1.99514 3.66662 2.27493 3.66662 2.56667V5.90333C3.25252 5.98786 2.88034 6.21287 2.61307 6.54027C2.34581 6.86767 2.19986 7.27736 2.19995 7.7C2.19995 8.57521 2.54763 9.41458 3.1665 10.0335C3.78537 10.6523 4.62474 11 5.49995 11H5.86662C6.83908 11 7.77171 10.6137 8.45934 9.92606C9.14698 9.23842 9.53328 8.30579 9.53328 7.33333V6.7078C9.53328 6.29023 9.3674 5.88975 9.07213 5.59448C8.77686 5.29921 8.37639 5.13333 7.95882 5.13333H5.86662V2.56667C5.86662 2.27493 5.75073 1.99514 5.54444 1.78885C5.33815 1.58256 5.05836 1.46667 4.76662 1.46667Z" fill="white"/>
</g>
<defs>
<clipPath id="clip0_6_128">
<rect width="11" height="11" fill="white"/>
</clipPath>
</defs>
</svg>
