<svg width="58" height="58" viewBox="0 0 58 58" fill="none" xmlns="http://www.w3.org/2000/svg">
<g clip-path="url(#clip0_5_566)">
<path d="M40.1432 31.1325C40.4167 30.8469 40.631 30.51 40.774 30.1414C41.0744 29.4101 41.0744 28.5899 40.774 27.8586C40.631 27.4899 40.4167 27.1531 40.1432 26.8675L31.1325 17.8567C30.5669 17.2911 29.7998 16.9734 29 16.9734C28.2001 16.9734 27.433 17.2911 26.8674 17.8567C26.3018 18.4223 25.9841 19.1894 25.9841 19.9893C25.9841 20.7891 26.3018 21.5562 26.8674 22.1218L30.7721 25.9964H19.9892C19.1926 25.9964 18.4287 26.3129 17.8654 26.8761C17.3021 27.4394 16.9857 28.2034 16.9857 29C16.9857 29.7966 17.3021 30.5606 17.8654 31.1238C18.4287 31.6871 19.1926 32.0036 19.9892 32.0036H30.7721L26.8674 35.8782C26.5859 36.1574 26.3625 36.4896 26.21 36.8556C26.0575 37.2216 25.979 37.6142 25.979 38.0107C25.979 38.4072 26.0575 38.7998 26.21 39.1658C26.3625 39.5318 26.5859 39.864 26.8674 40.1433C27.1466 40.4248 27.4788 40.6482 27.8449 40.8007C28.2109 40.9532 28.6035 41.0317 29 41.0317C29.3965 41.0317 29.789 40.9532 30.1551 40.8007C30.5211 40.6482 30.8533 40.4248 31.1325 40.1433L40.1432 31.1325ZM59.0357 29C59.0357 23.0595 57.2741 17.2524 53.9737 12.313C50.6734 7.37367 45.9824 3.52392 40.4941 1.25058C35.0058 -1.02275 28.9666 -1.61756 23.1403 -0.458625C17.3139 0.700311 11.9621 3.56094 7.7615 7.76151C3.56093 11.9621 0.700309 17.3139 -0.458625 23.1403C-1.61756 28.9667 -1.02275 35.0059 1.25058 40.4942C3.52391 45.9825 7.37366 50.6734 12.313 53.9738C17.2524 57.2742 23.0595 59.0357 29 59.0357C36.9659 59.0357 44.6056 55.8713 50.2384 50.2385C55.8712 44.6057 59.0357 36.966 59.0357 29ZM4.97139 29C4.97139 24.2476 6.38064 19.6019 9.02093 15.6504C11.6612 11.6989 15.414 8.61913 19.8046 6.80047C24.1953 4.9818 29.0266 4.50595 33.6877 5.4331C38.3488 6.36025 42.6303 8.64875 45.9907 12.0092C49.3512 15.3697 51.6397 19.6512 52.5668 24.3123C53.494 28.9733 53.0181 33.8047 51.1995 38.1953C49.3808 42.586 46.301 46.3387 42.3495 48.979C38.398 51.6193 33.7524 53.0286 29 53.0286C22.6272 53.0286 16.5154 50.497 12.0092 45.9908C7.50296 41.4845 4.97139 35.3728 4.97139 29Z" fill="#9C9C9C"/>
</g>
<defs>
<clipPath id="clip0_5_566">
<rect width="58" height="58" fill="white"/>
</clipPath>
</defs>
</svg>
