<svg width="58" height="58" viewBox="0 0 58 58" fill="none" xmlns="http://www.w3.org/2000/svg">
<g clip-path="url(#clip0_5_568)">
<path d="M18.241 26.9409C17.977 27.2167 17.77 27.5419 17.632 27.8979C17.3419 28.6039 17.3419 29.3959 17.632 30.1019C17.77 30.4579 17.977 30.7831 18.241 31.0589L26.941 39.7589C27.4871 40.305 28.2277 40.6118 29 40.6118C29.7723 40.6118 30.5129 40.305 31.059 39.7589C31.6051 39.2128 31.9119 38.4722 31.9119 37.6999C31.9119 36.9276 31.6051 36.187 31.059 35.6409L27.289 31.8999H37.7C38.4691 31.8999 39.2067 31.5944 39.7506 31.0505C40.2945 30.5066 40.6 29.769 40.6 28.9999C40.6 28.2308 40.2945 27.4931 39.7506 26.9493C39.2067 26.4054 38.4691 26.0999 37.7 26.0999H27.289L31.059 22.3589C31.3308 22.0893 31.5465 21.7686 31.6938 21.4152C31.841 21.0618 31.9168 20.6827 31.9168 20.2999C31.9168 19.9171 31.841 19.538 31.6938 19.1846C31.5465 18.8312 31.3308 18.5105 31.059 18.2409C30.7894 17.9691 30.4687 17.7533 30.1153 17.6061C29.7619 17.4589 29.3828 17.3831 29 17.3831C28.6172 17.3831 28.2381 17.4589 27.8847 17.6061C27.5313 17.7533 27.2106 17.9691 26.941 18.2409L18.241 26.9409ZM0 28.9999C0 34.7355 1.70082 40.3424 4.88738 45.1114C8.07394 49.8805 12.6031 53.5975 17.9022 55.7924C23.2012 57.9874 29.0322 58.5616 34.6576 57.4427C40.2831 56.3237 45.4504 53.5617 49.5061 49.506C53.5618 45.4503 56.3238 40.283 57.4428 34.6575C58.5617 29.0321 57.9874 23.2011 55.7925 17.9021C53.5976 12.603 49.8805 8.07382 45.1115 4.88726C40.3425 1.7007 34.7356 -0.00012207 29 -0.00012207C25.1917 -0.00012207 21.4206 0.749986 17.9022 2.20737C14.3837 3.66476 11.1868 5.80088 8.4939 8.49378C3.05535 13.9323 0 21.3086 0 28.9999ZM52.2 28.9999C52.2 33.5884 50.8393 38.0739 48.2901 41.8891C45.7408 45.7043 42.1175 48.6779 37.8782 50.4339C33.639 52.1899 28.9743 52.6493 24.4739 51.7541C19.9735 50.8589 15.8397 48.6494 12.5951 45.4048C9.35054 42.1602 7.14096 38.0263 6.24578 33.526C5.3506 29.0256 5.81004 24.3609 7.56599 20.1216C9.32195 15.8824 12.2955 12.259 16.1108 9.70979C19.926 7.16054 24.4115 5.79988 29 5.79988C35.153 5.79988 41.054 8.24416 45.4049 12.595C49.7557 16.9459 52.2 22.8469 52.2 28.9999Z" fill="#808080"/>
</g>
<defs>
<clipPath id="clip0_5_568">
<rect width="58" height="58" fill="white"/>
</clipPath>
</defs>
</svg>
